<svg xmlns="http://www.w3.org/2000/svg" viewBox="0 0 13.14 14"><defs><style>.cls-1{fill:#b0bffc;}.cls-2{fill:#07175e;}</style></defs><g id="Layer_2" data-name="Layer 2"><g id="Layer_1-2" data-name="Layer 1"><path class="cls-1" d="M4.56,2.07h0a1,1,0,0,0-.28-.65.9.9,0,0,0-.64-.26H3.41V1H4.56Zm0,8v1.05H3.41V11H3.6a.87.87,0,0,0,.64-.27A1,1,0,0,0,4.52,10ZM6.68,1V11.09H4.52V1Zm0,1.06V1H7.79v.15H7.6A.88.88,0,0,0,7,1.42a.94.94,0,0,0-.28.65Zm3.85,8.4.34.62H6.63v-.62Zm1-2.33-.66,2.95H8l.52-.62a2.73,2.73,0,0,0,1.27-.28,2.65,2.65,0,0,0,.94-.8,4.41,4.41,0,0,0,.61-1.25Z" transform="translate(0)"/><path class="cls-2" d="M13,9.8l.12-.05c-.18-.26-.35-.51-.49-.75s-.29-.53-.44-.85L9.11,1.41a.85.85,0,0,1,0-.68A.84.84,0,0,1,9.55.24L9.79.13,9.73,0,8.64.5h0l-1.79.82h0l-1.08.5L5.83,2l.25-.11a.83.83,0,0,1,.67,0,.88.88,0,0,1,.5.45h0L9.63,7.43.13,4.18,0,4.24A10.93,10.93,0,0,1,.91,5.8L4,12.59H4a.87.87,0,0,1,0,.67.85.85,0,0,1-.46.49l-.25.12.06.13,1-.48h0l1.83-.84h0l1.09-.5-.06-.13-.25.11a.9.9,0,0,1-1.17-.43h0L3.51,6.55Z" transform="translate(0)"/><path class="cls-1" d="M4.24,1.42a1,1,0,0,1,.28.65V5.59a6.2,6.2,0,0,1,1.6-.2,5.25,5.25,0,0,1,.56,0V2.07A.94.94,0,0,1,7,1.42a.88.88,0,0,1,.64-.26h.19V1H3.41v.15H3.6A.9.9,0,0,1,4.24,1.42Z" transform="translate(0)"/><path class="cls-1" d="M10.77,9.39a2.65,2.65,0,0,1-.94.8,2.73,2.73,0,0,1-1.27.28H6.68V8A5.76,5.76,0,0,1,4.6,7.32H4.52V10a1,1,0,0,1-.28.64A.87.87,0,0,1,3.6,11H3.41v.14h7.46l.66-2.95h-.15A4.41,4.41,0,0,1,10.77,9.39Z" transform="translate(0)"/></g></g></svg>