<svg xmlns="http://www.w3.org/2000/svg" viewBox="0 0 46.92 50"><defs><style>.cls-1{fill:#b0bffc;}.cls-2{fill:#07175e;}</style></defs><g id="Layer_2" data-name="Layer 2"><g id="Layer_1-2" data-name="Layer 1"><path class="cls-1" d="M16.29,7.38h-.16a3.31,3.31,0,0,0-1-2.29,3.1,3.1,0,0,0-2.29-1h-.67V3.62h4.12Zm0,28.48v3.76H12.17V39.1h.67a3.1,3.1,0,0,0,2.29-1,3.31,3.31,0,0,0,1-2.29ZM23.85,3.62v36H16.13v-36Zm-.16,3.76V3.62H27.8v.52h-.66a3.1,3.1,0,0,0-2.29,1,3.26,3.26,0,0,0-1,2.29Zm13.73,30,1.23,2.22h-15V37.4Zm3.75-8.32L38.81,39.62H28.73l1.85-2.22a9.81,9.81,0,0,0,4.53-1,9.65,9.65,0,0,0,3.34-2.88,15.37,15.37,0,0,0,2.21-4.44Z" transform="translate(0)"/><path class="cls-2" d="M46.5,35l.42-.2c-.65-.91-1.23-1.8-1.74-2.68a32.55,32.55,0,0,1-1.57-3L32.54,5h0a3.18,3.18,0,0,1,0-2.44A3.05,3.05,0,0,1,34.12.85L35,.47,34.75,0,30.87,1.78h0l-6.49,3h0L20.59,6.51l.22.47.89-.41a3.07,3.07,0,0,1,2.41-.12,3.28,3.28,0,0,1,1.8,1.64L34.4,26.55.47,14.93,0,15.14a38.22,38.22,0,0,1,3.25,5.58L14.4,45h0a3,3,0,0,1,.09,2.4,3,3,0,0,1-1.62,1.76l-.89.41.21.47,3.88-1.78h0l6.54-3h0l3.74-1.72L26.13,43l-.89.41a3.17,3.17,0,0,1-4.16-1.54h0L12.53,23.4Z" transform="translate(0)"/><path class="cls-1" d="M15.13,5.09a3.31,3.31,0,0,1,1,2.29V20a23,23,0,0,1,5.72-.71c.69,0,1.34,0,2,.1v-12a3.26,3.26,0,0,1,1-2.29,3.1,3.1,0,0,1,2.29-1h.66V3.62H12.17v.52h.67A3.1,3.1,0,0,1,15.13,5.09Z" transform="translate(0)"/><path class="cls-1" d="M38.45,33.52a9.65,9.65,0,0,1-3.34,2.88,9.81,9.81,0,0,1-4.53,1H23.85v-9a20.37,20.37,0,0,1-7.41-2.24,3,3,0,0,1-.31,0v9.68a3.31,3.31,0,0,1-1,2.29,3.1,3.1,0,0,1-2.29,1h-.67v.52H38.81l2.36-10.54h-.51A15.37,15.37,0,0,1,38.45,33.52Z" transform="translate(0)"/></g></g></svg>